<svg viewBox="435 225 117 98" xmlns="http://www.w3.org/2000/svg">
<path d="M524.9,307.7c-0.3-0.6-0.4-0.9-0.5-1.1c-3.9-7.4-7.8-14.8-11.7-22.2c-0.4-0.7-0.3-1.2,0.2-1.8
		c6.2-7.2,12.3-14.5,18.5-21.7c0.2-0.3,0.4-0.5,0.5-1c-1.8,0.5-3.6,0.9-5.4,1.4c-7.5,2-15,4-22.4,6c-0.7,0.2-1,0-1.4-0.6
		c-4.2-7.1-8.5-14.2-12.8-21.2c-0.2-0.4-0.5-0.7-0.9-1c-0.3,1.9-0.7,3.8-1,5.7c-1.2,6.7-2.4,13.3-3.6,20c-0.1,0.7-0.3,1.4-0.4,2.2
		c-0.1,0.7-0.4,0.9-1,1.1c-8.8,2.8-17.6,5.6-26.4,8.3c-0.4,0.1-0.8,0.3-1.2,0.7c7.2,2.9,14.4,5.7,21.7,8.6c-0.3,0.2-0.4,0.4-0.6,0.5
		c-4.5,2.9-9,5.8-13.5,8.7c-0.5,0.4-1,0.4-1.6,0.1c-5.4-2.4-10.8-4.8-16.2-7.2c-2.4-1.1-4.6-2.5-6.3-4.6c-3.8-4.7-3.1-10,2-13.3
		c1.7-1.1,3.6-1.9,5.5-2.5c8.6-2.8,17.3-5.5,25.9-8.2c0.7-0.2,1.1-0.6,1.2-1.3c1.2-6.7,2.3-13.4,3.6-20c0.6-3.6,1-7.2,2.7-10.5
		c0.7-1.3,1.5-2.5,2.4-3.5c3.4-3.8,8.2-4,11.9-0.3c1.2,1.2,2.3,2.7,3.2,4.2c4,6.5,7.9,13.1,11.9,19.7c0.5,0.8,0.9,0.9,1.7,0.7
		c9.7-2.6,19.3-5.1,29-7.7c2-0.5,4-0.7,6.1-0.3c4.5,0.8,6.4,4.2,4.9,8.5c-0.7,2-1.9,3.6-3.2,5.2c-6.7,7.9-13.5,15.9-20.2,23.8
		c-0.6,0.6-0.6,1.1-0.2,1.8c4,7.6,8,15.2,12.1,22.9c1,1.8,1.7,3.7,1.7,5.8c0,4.8-3.4,8.7-8.2,9.4c-2.7,0.4-5.1-0.2-7.6-0.9
		c-6.1-1.9-12.1-3.7-18.2-5.5c-0.6-0.2-0.8-0.4-0.9-1c-0.7-4.3-1.5-8.5-2.2-12.8c0-0.1,0-0.2,0-0.5
		C510.9,303.8,517.7,305.7,524.9,307.7z" fill="#E26A1A"/>
</svg>
