<svg width="150" height="150" viewBox="6 31 39 39" fill="none" xmlns="http://www.w3.org/2000/svg">
<path d="M43.4295 61.3529L26.3179 31.8768C25.9325 31.2299 24.9818 31.2299 24.5964 31.8768L10.0541 56.9276C9.79712 57.3676 10.2596 57.8851 10.7221 57.6522C10.9019 57.5746 11.1332 57.4711 11.3644 57.3934C11.3644 57.3934 11.7498 57.2382 12.4435 57.0311C13.1886 56.7982 13.9851 56.5912 14.7302 56.41C16.7857 55.9442 19.4835 55.556 21.8986 55.9442C24.1339 56.3065 25.7012 56.9276 26.8317 57.5228C27.3456 57.8075 27.8338 57.1088 27.4227 56.6947C25.804 55.1161 23.2861 53.1752 19.4835 52.3729C19.3293 52.347 19.2265 52.14 19.3293 52.0106L25.0332 42.1508C25.213 41.8143 25.6755 41.8143 25.8811 42.1508L36.8264 60.9906C37.0576 61.3788 36.8521 61.8964 36.441 62.0516C35.5931 62.3363 34.5654 62.5433 33.4092 62.5433C32.6898 62.5433 31.9447 62.4657 31.1996 62.2845C31.1996 62.2845 29.0927 61.9481 26.2408 60.2401C23.4145 58.5321 17.9419 56.3583 11.8269 59.8778C9.20618 61.5599 7.45904 63.889 6.53408 65.3383C6.37992 65.5712 6.63686 65.83 6.8681 65.7006C8.97494 64.5619 14.6531 61.8964 19.7661 62.8539C22.7979 63.4232 26.2922 65.7264 29.8892 67.0721C35.8757 69.2977 41.7338 65.5712 41.7338 65.5453C42.3504 65.1312 42.7101 64.8207 42.7872 64.7689L42.8643 64.6913C43.8406 63.8632 44.0719 62.4657 43.4295 61.3529Z" fill="#00ADD4"/>
</svg>
